<svg width="55" height="46" viewBox="0 0 55 46" fill="none" xmlns="http://www.w3.org/2000/svg">
<g opacity="0.5">
<mask id="mask0_516_482" style="mask-type:luminance" maskUnits="userSpaceOnUse" x="0" y="0" width="55" height="46">
<path d="M27.049 43.5789C40.8414 43.5789 52.0223 34.2712 52.0223 22.7895C52.0223 11.3078 40.8414 2 27.049 2C13.2566 2 2.07568 11.3078 2.07568 22.7895C2.07568 34.2712 13.2566 43.5789 27.049 43.5789Z" stroke="black" stroke-width="4"/>
</mask>
<g mask="url(#mask0_516_482)">
<path d="M27.049 43.5789C40.8414 43.5789 52.0223 34.2712 52.0223 22.7895C52.0223 11.3078 40.8414 2 27.049 2C13.2566 2 2.07568 11.3078 2.07568 22.7895C2.07568 34.2712 13.2566 43.5789 27.049 43.5789Z" stroke="url(#paint0_linear_516_482)" stroke-width="4"/>
</g>
<path fill-rule="evenodd" clip-rule="evenodd" d="M37.2524 13.2646L33.6849 31.0838C33.6384 31.3081 33.4898 31.4821 33.2389 31.6059C33.1089 31.6677 32.9649 31.6987 32.8069 31.6987C32.7047 31.6987 32.5933 31.6793 32.4725 31.6407L26.1596 29.4945L22.7871 32.9168C22.6199 33.0947 22.3923 33.1836 22.1043 33.1836C21.9835 33.1836 21.8813 33.1681 21.7977 33.1372C21.6212 33.0831 21.4795 32.9922 21.3727 32.8646C21.2658 32.737 21.2124 32.5958 21.2124 32.4411V28.3924L33.2529 16.1069L18.3556 26.8378L12.851 24.9585C12.5072 24.8502 12.3214 24.6375 12.2935 24.3204C12.275 24.011 12.4236 23.7829 12.7395 23.6359L35.9285 12.4989C36.0679 12.4293 36.2165 12.3945 36.3745 12.3945C36.5603 12.3945 36.7275 12.4371 36.8762 12.5221C37.1828 12.7078 37.3082 12.9552 37.2524 13.2646Z" fill="url(#paint1_linear_516_482)"/>
</g>
<defs>
<linearGradient id="paint0_linear_516_482" x1="3.74057" y1="43.579" x2="55.7838" y2="37.1836" gradientUnits="userSpaceOnUse">
<stop stop-color="#0F644D"/>
<stop offset="1" stop-color="#37A480"/>
<stop offset="1" stop-color="#2B7662"/>
</linearGradient>
<linearGradient id="paint1_linear_516_482" x1="13.1244" y1="33.1836" x2="39.1461" y2="29.9859" gradientUnits="userSpaceOnUse">
<stop stop-color="#0F644D"/>
<stop offset="1" stop-color="#37A480"/>
<stop offset="1" stop-color="#2B7662"/>
</linearGradient>
</defs>
</svg>
