<svg width="52" height="42" viewBox="0 0 52 42" fill="none" xmlns="http://www.w3.org/2000/svg">
<g opacity="0.5">
<path fill-rule="evenodd" clip-rule="evenodd" d="M27.0102 28.2844C27.0102 28.2844 27.5394 28.2379 27.8105 28.0076C28.0586 27.7966 28.05 27.3985 28.05 27.3985C28.05 27.3985 28.017 25.5396 29.1085 25.2651C30.1842 24.9952 31.5654 27.0628 33.0312 27.8579C34.1385 28.459 34.979 28.3275 34.979 28.3275L38.896 28.2844C38.896 28.2844 40.9441 28.1845 39.9731 26.9108C39.8928 26.8065 39.4066 25.9683 37.0615 24.2466C34.6046 22.4443 34.9345 22.7358 37.892 19.6179C39.6934 17.7192 40.4134 16.5601 40.1883 16.0644C39.9746 15.5903 38.6493 15.7162 38.6493 15.7162L34.2403 15.7378C34.2403 15.7378 33.9133 15.7026 33.6709 15.8172C33.4343 15.9295 33.2808 16.1915 33.2808 16.1915C33.2808 16.1915 32.5837 17.6602 31.6529 18.9101C29.6894 21.546 28.9048 21.6855 28.5836 21.5222C27.8363 21.14 28.0228 19.9888 28.0228 19.171C28.0228 16.6156 28.5133 15.5506 27.069 15.275C26.5899 15.1831 26.2371 15.123 25.0108 15.1128C23.4374 15.1003 22.1064 15.1174 21.3519 15.4089C20.85 15.6028 20.4627 16.0361 20.6994 16.061C20.9905 16.0916 21.6503 16.2017 22.0002 16.5782C22.452 17.0648 22.4363 18.1559 22.4363 18.1559C22.4363 18.1559 22.6959 21.1638 21.8296 21.537C21.2358 21.7933 20.4211 21.2704 18.6699 18.8784C17.7734 17.6534 17.0965 16.2992 17.0965 16.2992C17.0965 16.2992 16.9659 16.0463 16.7322 15.9102C16.4496 15.7457 16.0552 15.6947 16.0552 15.6947L11.8657 15.7162C11.8657 15.7162 11.236 15.7298 11.0051 15.9465C10.8 16.1381 10.9893 16.5363 10.9893 16.5363C10.9893 16.5363 14.2695 22.6054 17.9843 25.6643C21.3907 28.4681 25.2575 28.2844 25.2575 28.2844H27.0102Z" fill="url(#paint0_linear_516_483)"/>
</g>
<defs>
<linearGradient id="paint0_linear_516_483" x1="11.8872" y1="28.3397" x2="41.3875" y2="21.6503" gradientUnits="userSpaceOnUse">
<stop stop-color="#0F644D"/>
<stop offset="1" stop-color="#37A480"/>
<stop offset="1" stop-color="#2B7662"/>
</linearGradient>
</defs>
</svg>
