<svg width="51" height="42" viewBox="0 0 51 42" fill="none" xmlns="http://www.w3.org/2000/svg">
<g opacity="0.5">
<path d="M25.7723 10.3945C18.8765 10.3945 13.2856 15.0488 13.2856 20.7893C13.2856 22.7393 13.9436 24.5574 15.066 26.1169L13.3974 31.184L19.6143 29.8254C21.4325 30.686 23.5315 31.184 25.7723 31.184C32.6681 31.184 38.259 26.5298 38.259 20.7893C38.259 15.0488 32.6681 10.3945 25.7723 10.3945ZM21.4983 15.9404C21.7012 15.9404 21.9097 15.9394 22.0897 15.9472C22.3124 15.9515 22.5548 15.9651 22.7868 16.3921C23.0625 16.8998 23.663 18.1732 23.74 18.3022C23.817 18.4313 23.8715 18.5834 23.7644 18.7523C23.6624 18.9255 23.6093 19.0304 23.4595 19.1837C23.3045 19.3327 23.1346 19.5177 22.9941 19.6304C22.8391 19.7594 22.679 19.9009 22.8579 20.1582C23.0369 20.4155 23.6585 21.2589 24.5773 21.9397C25.7583 22.8181 26.7548 23.088 27.0649 23.2171C27.3749 23.3461 27.5545 23.326 27.7335 23.1528C27.9177 22.9839 28.507 22.4043 28.7151 22.1461C28.918 21.888 29.1252 21.9327 29.4061 22.0176C29.6912 22.1024 31.2117 22.726 31.5218 22.855C31.8319 22.9841 32.0351 23.048 32.1132 23.1528C32.1933 23.2611 32.1934 23.7765 31.9364 24.3777C31.6793 24.978 30.4173 25.5585 29.8512 25.5992C29.2799 25.6434 28.7468 25.813 26.1381 24.958C22.9915 23.9263 21.0071 21.2434 20.852 21.0701C20.697 20.9012 19.592 19.6752 19.592 18.4105C19.592 17.1415 20.3912 16.52 20.6711 16.2619C20.9563 16.0037 21.2902 15.9404 21.4983 15.9404Z" fill="url(#paint0_linear_516_484)"/>
</g>
<defs>
<linearGradient id="paint0_linear_516_484" x1="14.1181" y1="31.184" x2="40.1397" y2="27.9863" gradientUnits="userSpaceOnUse">
<stop stop-color="#0F644D"/>
<stop offset="1" stop-color="#37A480"/>
<stop offset="1" stop-color="#2B7662"/>
</linearGradient>
</defs>
</svg>
