<svg width="52" height="52" viewBox="0 0 52 52" fill="none" xmlns="http://www.w3.org/2000/svg">
<circle cx="26" cy="26" r="26" fill="white"/>
<path d="M51.4128 27.3967C51.6081 27.2014 51.6081 26.8849 51.4128 26.6896L48.2309 23.5076C48.0356 23.3124 47.719 23.3124 47.5237 23.5076C47.3285 23.7029 47.3285 24.0195 47.5237 24.2147L50.3522 27.0432L47.5237 29.8716C47.3285 30.0668 47.3285 30.3834 47.5237 30.5787C47.719 30.7739 48.0356 30.7739 48.2309 30.5787L51.4128 27.3967ZM35.9868 27.5432H51.0593V26.5432H35.9868V27.5432Z" fill="#292929"/>
<path d="M0.469491 26.6896C0.274229 26.8849 0.274229 27.2014 0.469491 27.3967L3.65147 30.5787C3.84673 30.7739 4.16332 30.7739 4.35858 30.5787C4.55384 30.3834 4.55384 30.0668 4.35858 29.8716L1.53015 27.0432L4.35858 24.2147C4.55384 24.0195 4.55384 23.7029 4.35858 23.5076C4.16332 23.3124 3.84673 23.3124 3.65147 23.5076L0.469491 26.6896ZM15.8955 26.5432L0.823045 26.5432V27.5432L15.8955 27.5432V26.5432Z" fill="#292929"/>
</svg>
